<?xml version="1.0" encoding="utf-8"?>
<!-- Generator: Adobe Illustrator 23.0.1, SVG Export Plug-In . SVG Version: 6.00 Build 0)  -->
<svg version="1.1" id="Layer_1" xmlns="http://www.w3.org/2000/svg" xmlns:xlink="http://www.w3.org/1999/xlink" x="0px" y="0px"
	 viewBox="0 0 48 48" style="enable-background:new 0 0 48 48;" xml:space="preserve">
<style type="text/css">
	.st0{fill:#C6C6C6;}
</style>
<desc>Created with Lunacy</desc>
<path id="path_1" d="M0,24C0,10.7,10.7,0,24,0s24,10.7,24,24S37.3,48,24,48S0,37.3,0,24z"/>
<path class="st0" d="M24,2C11.9,2,2,11.9,2,24c0,12.1,9.9,22,22,22s22-9.9,22-22C46,11.9,36.1,2,24,2z"/>
<path d="M24,47.8c-0.6,0-1-0.4-1-1V1.2c0-0.6,0.4-1,1-1s1,0.4,1,1v45.6C25,47.4,24.6,47.8,24,47.8z"/>
<path d="M46.8,25H1.2c-0.6,0-1-0.4-1-1s0.4-1,1-1h45.6c0.6,0,1,0.4,1,1S47.4,25,46.8,25z"/>
</svg>
