<?xml version="1.0" encoding="utf-8"?>
<!-- Generator: Adobe Illustrator 23.0.1, SVG Export Plug-In . SVG Version: 6.00 Build 0)  -->
<svg version="1.1" id="Layer_1" xmlns="http://www.w3.org/2000/svg" xmlns:xlink="http://www.w3.org/1999/xlink" x="0px" y="0px"
	 viewBox="0 0 48 48" style="enable-background:new 0 0 48 48;" xml:space="preserve">
<style type="text/css">
	.st0{fill:#F8D9FF;}
</style>
<path id="path_1" class="st0" d="M2,24C2,11.8,11.8,2,24,2s22,9.8,22,22s-9.8,22-22,22S2,36.2,2,24z"/>
<desc>Created with Lunacy</desc>
<path d="M24,48C10.8,48,0,37.2,0,24C0,10.8,10.8,0,24,0s24,10.8,24,24C48,37.2,37.2,48,24,48z M24,2C11.9,2,2,11.9,2,24
	c0,12.1,9.9,22,22,22s22-9.9,22-22C46,11.9,36.1,2,24,2z"/>
</svg>
